<mxfile host="app.diagrams.net" modified="2024-04-08T01:13:00.969Z" agent="Mozilla/5.0 (X11; Linux x86_64; rv:122.0) Gecko/20100101 Firefox/122.0" etag="ujz9-IeuEFw4bkfiCzCo" version="24.2.2" type="device">
  <diagram name="PÃ¡gina-1" id="PRtO155iJ3JlSD0bKajs">
    <mxGraphModel dx="1434" dy="822" grid="1" gridSize="10" guides="1" tooltips="1" connect="1" arrows="1" fold="1" page="1" pageScale="1" pageWidth="827" pageHeight="1169" math="0" shadow="0">
      <root>
        <mxCell id="0" />
        <mxCell id="1" parent="0" />
        <mxCell id="4i5c9vv8eh6KajX5vXTG-1" value="model.logger" style="shape=folder;fontStyle=1;tabWidth=110;tabHeight=30;tabPosition=left;html=1;boundedLbl=1;labelInHeader=1;container=1;collapsible=0;whiteSpace=wrap;" vertex="1" parent="1">
          <mxGeometry x="40" y="80" width="970" height="470" as="geometry" />
        </mxCell>
        <mxCell id="4i5c9vv8eh6KajX5vXTG-2" value="" style="html=1;strokeColor=none;resizeWidth=1;resizeHeight=1;fillColor=none;part=1;connectable=0;allowArrows=0;deletable=0;whiteSpace=wrap;" vertex="1" parent="4i5c9vv8eh6KajX5vXTG-1">
          <mxGeometry width="970" height="329" relative="1" as="geometry">
            <mxPoint y="30" as="offset" />
          </mxGeometry>
        </mxCell>
        <mxCell id="4i5c9vv8eh6KajX5vXTG-3" value="&lt;p style=&quot;margin:0px;margin-top:4px;text-align:center;&quot;&gt;&lt;i&gt;&amp;lt;&amp;lt;Interface&amp;gt;&amp;gt;&lt;/i&gt;&lt;b&gt;&lt;br&gt;&lt;/b&gt;&lt;/p&gt;&lt;p style=&quot;margin:0px;margin-top:4px;text-align:center;&quot;&gt;&lt;b&gt;Logger&lt;/b&gt;&lt;br&gt;&lt;/p&gt;&lt;hr size=&quot;1&quot; style=&quot;border-style:solid;&quot;&gt;&lt;p style=&quot;margin:0px;margin-left:4px;&quot;&gt;&lt;br&gt;&lt;/p&gt;&lt;hr size=&quot;1&quot; style=&quot;border-style:solid;&quot;&gt;&lt;p style=&quot;margin:0px;margin-left:4px;&quot;&gt;+ log(message: String)&lt;br&gt;&lt;br&gt;&lt;/p&gt;" style="verticalAlign=top;align=left;overflow=fill;html=1;whiteSpace=wrap;strokeColor=#000000;fontFamily=Helvetica;fontSize=12;fontColor=default;fillColor=#fff2cc;" vertex="1" parent="4i5c9vv8eh6KajX5vXTG-1">
          <mxGeometry x="660" y="40" width="190" height="120" as="geometry" />
        </mxCell>
        <mxCell id="4i5c9vv8eh6KajX5vXTG-4" value="&lt;p style=&quot;margin:0px;margin-top:4px;text-align:center;&quot;&gt;&lt;b&gt;FileLogger&lt;/b&gt;&lt;/p&gt;&lt;hr size=&quot;1&quot; style=&quot;border-style:solid;&quot;&gt;&lt;p style=&quot;margin:0px;margin-left:4px;&quot;&gt;- fileName: String&lt;br&gt;&lt;/p&gt;&lt;hr size=&quot;1&quot; style=&quot;border-style:solid;&quot;&gt;&lt;p style=&quot;margin:0px;margin-left:4px;&quot;&gt;&lt;br&gt;&lt;/p&gt;" style="verticalAlign=top;align=left;overflow=fill;html=1;whiteSpace=wrap;strokeColor=#000000;fontFamily=Helvetica;fontSize=12;fontColor=default;fillColor=#fff2cc;" vertex="1" parent="4i5c9vv8eh6KajX5vXTG-1">
          <mxGeometry x="627" y="230" width="160" height="90" as="geometry" />
        </mxCell>
        <mxCell id="4i5c9vv8eh6KajX5vXTG-5" value="" style="endArrow=block;dashed=1;endFill=0;endSize=12;html=1;rounded=0;entryX=0.25;entryY=1;entryDx=0;entryDy=0;exitX=0.5;exitY=0;exitDx=0;exitDy=0;" edge="1" parent="4i5c9vv8eh6KajX5vXTG-1" source="4i5c9vv8eh6KajX5vXTG-4" target="4i5c9vv8eh6KajX5vXTG-3">
          <mxGeometry width="160" relative="1" as="geometry">
            <mxPoint x="290" y="350" as="sourcePoint" />
            <mxPoint x="450" y="350" as="targetPoint" />
          </mxGeometry>
        </mxCell>
        <mxCell id="4i5c9vv8eh6KajX5vXTG-6" value="&lt;p style=&quot;margin:0px;margin-top:4px;text-align:center;&quot;&gt;&lt;b&gt;TerminalLogger&lt;/b&gt;&lt;/p&gt;&lt;hr size=&quot;1&quot; style=&quot;border-style:solid;&quot;&gt;&lt;p style=&quot;margin:0px;margin-left:4px;&quot;&gt;&lt;br&gt;&lt;/p&gt;&lt;hr size=&quot;1&quot; style=&quot;border-style:solid;&quot;&gt;&lt;p style=&quot;margin:0px;margin-left:4px;&quot;&gt;&lt;br&gt;&lt;/p&gt;" style="verticalAlign=top;align=left;overflow=fill;html=1;whiteSpace=wrap;strokeColor=#000000;fontFamily=Helvetica;fontSize=12;fontColor=default;fillColor=#fff2cc;" vertex="1" parent="4i5c9vv8eh6KajX5vXTG-1">
          <mxGeometry x="780" y="350" width="160" height="90" as="geometry" />
        </mxCell>
        <mxCell id="4i5c9vv8eh6KajX5vXTG-7" value="" style="endArrow=block;dashed=1;endFill=0;endSize=12;html=1;rounded=0;entryX=0.75;entryY=1;entryDx=0;entryDy=0;exitX=0.5;exitY=0;exitDx=0;exitDy=0;" edge="1" parent="4i5c9vv8eh6KajX5vXTG-1" source="4i5c9vv8eh6KajX5vXTG-6" target="4i5c9vv8eh6KajX5vXTG-3">
          <mxGeometry width="160" relative="1" as="geometry">
            <mxPoint x="290" y="350" as="sourcePoint" />
            <mxPoint x="450" y="350" as="targetPoint" />
          </mxGeometry>
        </mxCell>
        <mxCell id="4i5c9vv8eh6KajX5vXTG-8" value="&lt;p style=&quot;margin:0px;margin-top:4px;text-align:center;&quot;&gt;&lt;i&gt;&amp;lt;&amp;lt;Interface&amp;gt;&amp;gt;&lt;/i&gt;&lt;b&gt;&lt;br&gt;&lt;/b&gt;&lt;/p&gt;&lt;p style=&quot;margin:0px;margin-top:4px;text-align:center;&quot;&gt;&lt;b&gt;LoggerFactory&lt;/b&gt;&lt;br&gt;&lt;/p&gt;&lt;hr size=&quot;1&quot; style=&quot;border-style:solid;&quot;&gt;&lt;p style=&quot;margin:0px;margin-left:4px;&quot;&gt;&lt;br&gt;&lt;/p&gt;&lt;hr size=&quot;1&quot; style=&quot;border-style:solid;&quot;&gt;&lt;p style=&quot;margin:0px;margin-left:4px;&quot;&gt;+ factory(): Logger&lt;br&gt;&lt;br&gt;&lt;/p&gt;" style="verticalAlign=top;align=left;overflow=fill;html=1;whiteSpace=wrap;fillColor=#fff2cc;strokeColor=#000000;" vertex="1" parent="4i5c9vv8eh6KajX5vXTG-1">
          <mxGeometry x="104" y="45" width="190" height="110" as="geometry" />
        </mxCell>
        <mxCell id="4i5c9vv8eh6KajX5vXTG-9" value="&lt;p style=&quot;margin:0px;margin-top:4px;text-align:center;&quot;&gt;&lt;b&gt;FileLoggerFactory&lt;/b&gt;&lt;/p&gt;&lt;hr size=&quot;1&quot; style=&quot;border-style:solid;&quot;&gt;&lt;p style=&quot;margin:0px;margin-left:4px;&quot;&gt;&lt;br&gt;&lt;/p&gt;&lt;hr size=&quot;1&quot; style=&quot;border-style:solid;&quot;&gt;&lt;p style=&quot;margin:0px;margin-left:4px;&quot;&gt;&lt;br&gt;&lt;/p&gt;" style="verticalAlign=top;align=left;overflow=fill;html=1;whiteSpace=wrap;strokeColor=#000000;fontFamily=Helvetica;fontSize=12;fontColor=default;fillColor=#fff2cc;" vertex="1" parent="4i5c9vv8eh6KajX5vXTG-1">
          <mxGeometry x="250" y="230" width="160" height="90" as="geometry" />
        </mxCell>
        <mxCell id="4i5c9vv8eh6KajX5vXTG-10" value="&lt;p style=&quot;margin:0px;margin-top:4px;text-align:center;&quot;&gt;&lt;b&gt;TerminalLoggerFactory&lt;/b&gt;&lt;/p&gt;&lt;hr size=&quot;1&quot; style=&quot;border-style:solid;&quot;&gt;&lt;p style=&quot;margin:0px;margin-left:4px;&quot;&gt;&lt;br&gt;&lt;/p&gt;&lt;hr size=&quot;1&quot; style=&quot;border-style:solid;&quot;&gt;&lt;p style=&quot;margin:0px;margin-left:4px;&quot;&gt;&lt;br&gt;&lt;/p&gt;" style="verticalAlign=top;align=left;overflow=fill;html=1;whiteSpace=wrap;strokeColor=#000000;fontFamily=Helvetica;fontSize=12;fontColor=default;fillColor=#fff2cc;" vertex="1" parent="4i5c9vv8eh6KajX5vXTG-1">
          <mxGeometry x="70" y="340" width="160" height="90" as="geometry" />
        </mxCell>
        <mxCell id="4i5c9vv8eh6KajX5vXTG-11" value="" style="endArrow=block;dashed=1;endFill=0;endSize=12;html=1;rounded=0;entryX=0.25;entryY=1;entryDx=0;entryDy=0;exitX=0.5;exitY=0;exitDx=0;exitDy=0;" edge="1" parent="4i5c9vv8eh6KajX5vXTG-1" source="4i5c9vv8eh6KajX5vXTG-10" target="4i5c9vv8eh6KajX5vXTG-8">
          <mxGeometry width="160" relative="1" as="geometry">
            <mxPoint x="290" y="350" as="sourcePoint" />
            <mxPoint x="450" y="350" as="targetPoint" />
          </mxGeometry>
        </mxCell>
        <mxCell id="4i5c9vv8eh6KajX5vXTG-12" value="" style="endArrow=block;dashed=1;endFill=0;endSize=12;html=1;rounded=0;exitX=0.5;exitY=0;exitDx=0;exitDy=0;" edge="1" parent="4i5c9vv8eh6KajX5vXTG-1" source="4i5c9vv8eh6KajX5vXTG-9" target="4i5c9vv8eh6KajX5vXTG-8">
          <mxGeometry width="160" relative="1" as="geometry">
            <mxPoint x="290" y="350" as="sourcePoint" />
            <mxPoint x="450" y="350" as="targetPoint" />
          </mxGeometry>
        </mxCell>
        <mxCell id="4i5c9vv8eh6KajX5vXTG-13" value="Use" style="endArrow=open;endSize=12;dashed=1;html=1;rounded=0;exitX=1;exitY=0.5;exitDx=0;exitDy=0;entryX=0;entryY=0.5;entryDx=0;entryDy=0;" edge="1" parent="4i5c9vv8eh6KajX5vXTG-1" source="4i5c9vv8eh6KajX5vXTG-8" target="4i5c9vv8eh6KajX5vXTG-3">
          <mxGeometry width="160" relative="1" as="geometry">
            <mxPoint x="290" y="350" as="sourcePoint" />
            <mxPoint x="450" y="350" as="targetPoint" />
          </mxGeometry>
        </mxCell>
        <mxCell id="4i5c9vv8eh6KajX5vXTG-14" value="&lt;p style=&quot;margin:0px;margin-top:4px;text-align:center;&quot;&gt;&lt;b&gt;ClientCode&lt;/b&gt;&lt;br&gt;&lt;/p&gt;&lt;hr size=&quot;1&quot; style=&quot;border-style:solid;&quot;&gt;&lt;p style=&quot;margin:0px;margin-left:4px;&quot;&gt;&lt;br&gt;&lt;/p&gt;&lt;hr size=&quot;1&quot; style=&quot;border-style:solid;&quot;&gt;&lt;p style=&quot;margin:0px;margin-left:4px;&quot;&gt;+ main()&lt;br&gt;&lt;/p&gt;" style="verticalAlign=top;align=left;overflow=fill;html=1;whiteSpace=wrap;strokeColor=#000000;fontFamily=Helvetica;fontSize=12;fontColor=default;fillColor=#fff2cc;" vertex="1" parent="1">
          <mxGeometry x="290" y="630" width="160" height="90" as="geometry" />
        </mxCell>
        <mxCell id="4i5c9vv8eh6KajX5vXTG-15" value="Use" style="endArrow=open;endSize=12;dashed=1;html=1;rounded=0;exitX=0.5;exitY=0;exitDx=0;exitDy=0;entryX=0.5;entryY=1;entryDx=0;entryDy=0;" edge="1" parent="1" source="4i5c9vv8eh6KajX5vXTG-14" target="4i5c9vv8eh6KajX5vXTG-9">
          <mxGeometry width="160" relative="1" as="geometry">
            <mxPoint x="330" y="430" as="sourcePoint" />
            <mxPoint x="490" y="430" as="targetPoint" />
          </mxGeometry>
        </mxCell>
        <mxCell id="4i5c9vv8eh6KajX5vXTG-16" value="Use" style="endArrow=open;endSize=12;dashed=1;html=1;rounded=0;exitX=0.5;exitY=0;exitDx=0;exitDy=0;entryX=0.75;entryY=1;entryDx=0;entryDy=0;" edge="1" parent="1" source="4i5c9vv8eh6KajX5vXTG-14" target="4i5c9vv8eh6KajX5vXTG-10">
          <mxGeometry width="160" relative="1" as="geometry">
            <mxPoint x="330" y="430" as="sourcePoint" />
            <mxPoint x="490" y="430" as="targetPoint" />
          </mxGeometry>
        </mxCell>
        <mxCell id="4i5c9vv8eh6KajX5vXTG-17" value="Use" style="endArrow=open;endSize=12;dashed=1;html=1;rounded=0;exitX=0.5;exitY=0;exitDx=0;exitDy=0;entryX=0;entryY=0.75;entryDx=0;entryDy=0;" edge="1" parent="1" source="4i5c9vv8eh6KajX5vXTG-14" target="4i5c9vv8eh6KajX5vXTG-3">
          <mxGeometry width="160" relative="1" as="geometry">
            <mxPoint x="330" y="430" as="sourcePoint" />
            <mxPoint x="490" y="430" as="targetPoint" />
          </mxGeometry>
        </mxCell>
      </root>
    </mxGraphModel>
  </diagram>
</mxfile>
